<svg width="53" height="35" viewBox="0 0 53 35" fill="none" xmlns="http://www.w3.org/2000/svg">
<path fill-rule="evenodd" clip-rule="evenodd" d="M26.5965 5.07227H32.9683C36.3895 5.07227 37.6774 6.81445 37.4783 9.37397C37.1494 13.5996 34.6098 15.9374 31.2413 15.9374H29.5406C29.0784 15.9374 28.7676 16.2451 28.6426 17.079L27.9205 21.9267C27.8728 22.241 27.7083 22.423 27.4616 22.4478H23.4582C23.0816 22.4478 22.9483 22.1583 23.047 21.5312L25.4879 5.99052C25.5833 5.36842 25.9221 5.07227 26.5965 5.07227Z" fill="#009EE3"/>
<path fill-rule="evenodd" clip-rule="evenodd" d="M22.6116 0H29.0433C30.8543 0 33.0038 0.0582228 34.44 1.33081C35.4003 2.18086 35.9045 3.53329 35.7884 4.99053C35.3937 9.91618 32.4565 12.6759 28.5159 12.6759H25.3448C24.8041 12.6759 24.4475 13.0353 24.295 14.0067L23.4093 19.6627C23.3513 20.0286 23.1937 20.2449 22.9118 20.2715H18.943C18.5035 20.2715 18.3476 19.9388 18.462 19.2035L21.3146 1.07463C21.4291 0.346008 21.8288 0 22.6116 0Z" fill="#113984"/>
<path fill-rule="evenodd" clip-rule="evenodd" d="M24.4688 13.2702L25.5996 6.22068C25.6981 5.60239 26.0422 5.3064 26.727 5.3064H33.1978C34.2685 5.3064 35.1354 5.47084 35.8135 5.77505C35.1637 10.1097 32.3159 12.5171 28.5877 12.5171H25.3991C24.9715 12.5187 24.6575 12.7292 24.4688 13.2702Z" fill="#172C70"/>
<path fill-rule="evenodd" clip-rule="evenodd" d="M13.9884 25.5881C15.1342 25.5881 16.1915 26.2135 16.0468 27.7722C15.8715 29.6245 14.8852 30.6495 13.3291 30.6539H11.9694C11.7739 30.6539 11.6792 30.8145 11.6284 31.1435L11.3654 32.8256C11.3259 33.0796 11.1962 33.2049 11.005 33.2049H9.73999C9.53836 33.2049 9.46822 33.0752 9.51293 32.785L10.5571 26.0433C10.6088 25.7116 10.7324 25.5881 10.9577 25.5881H13.9857H13.9884ZM11.9282 29.1976H12.9583C13.6026 29.1729 14.0305 28.7239 14.0734 27.9142C14.0997 27.414 13.7639 27.0559 13.2301 27.0586L12.2604 27.063L11.9282 29.1976ZM19.486 32.6889C19.6018 32.583 19.7192 32.5283 19.7026 32.6589L19.6614 32.9711C19.6403 33.1343 19.7043 33.2208 19.8551 33.2208H20.979C21.1684 33.2208 21.2604 33.144 21.3069 32.8494L21.9995 28.4761C22.0345 28.2564 21.9811 28.1488 21.8154 28.1488H20.5792C20.4679 28.1488 20.4136 28.2114 20.3846 28.3826L20.339 28.6516C20.3154 28.7919 20.2514 28.8166 20.1918 28.6754C19.9822 28.1762 19.4475 27.9521 18.7014 27.9698C16.9682 28.0059 15.7996 29.3299 15.6742 31.027C15.5778 32.3396 16.5123 33.3707 17.7449 33.3707C18.6392 33.3707 19.0389 33.1061 19.4895 32.6915L19.486 32.6889ZM18.5445 32.0159C17.7984 32.0159 17.2786 31.4169 17.3864 30.683C17.4942 29.9491 18.1921 29.3502 18.9381 29.3502C19.6842 29.3502 20.204 29.9491 20.0962 30.683C19.9884 31.4169 19.2914 32.0159 18.5445 32.0159ZM24.1991 28.1347H23.0594C22.8244 28.1347 22.7289 28.3111 22.8034 28.5281L24.2183 32.6968L22.8306 34.6806C22.714 34.8465 22.8043 34.9973 22.9682 34.9973H24.249C24.3237 35.006 24.3992 34.9929 24.4667 34.9596C24.5341 34.9263 24.5907 34.8741 24.6295 34.8094L28.9813 28.529C29.1155 28.3358 29.0523 28.1329 28.8323 28.1329H27.6199C27.4121 28.1329 27.3288 28.2159 27.2096 28.3896L25.3948 31.0359L24.5839 28.3834C24.5366 28.2229 24.4182 28.1347 24.1999 28.1347H24.1991Z" fill="#113984"/>
<path fill-rule="evenodd" clip-rule="evenodd" d="M33.4988 25.5899C34.6345 25.5899 35.6825 26.2103 35.5391 27.7566C35.3653 29.5942 34.3877 30.611 32.8453 30.6154H31.4984C31.3047 30.6154 31.2108 30.7747 31.1604 31.1011L30.8997 32.7698C30.8606 33.0218 30.732 33.1461 30.5426 33.1461H29.2887C29.0888 33.1461 29.0193 33.0175 29.0636 32.7296L30.1003 26.0397C30.1515 25.7106 30.2741 25.5881 30.4974 25.5881H33.4988V25.5899ZM31.4567 29.1707H32.4777C33.1164 29.1462 33.5405 28.7008 33.5831 27.8974C33.6091 27.4013 33.2763 27.046 32.7471 27.0486L31.7861 27.053L31.4567 29.1707ZM38.948 32.6342C39.0627 32.5292 39.1792 32.4749 39.1627 32.6044L39.1218 32.9142C39.101 33.0761 39.1644 33.1619 39.3139 33.1619H40.4279C40.6156 33.1619 40.7068 33.0857 40.7529 32.7935L41.4393 28.4549C41.4741 28.237 41.4211 28.1302 41.2569 28.1302H40.0334C39.923 28.1302 39.8691 28.1923 39.8405 28.3621L39.7953 28.629C39.7718 28.7681 39.7084 28.7926 39.6493 28.6526C39.4416 28.1573 38.9115 27.9351 38.1721 27.9526C36.4541 27.9884 35.2958 29.3019 35.1715 30.9856C35.0759 32.2877 36.0023 33.3106 37.224 33.3106C38.1104 33.3106 38.5066 33.0481 38.9532 32.6368L38.948 32.6342ZM38.0156 31.9665C37.2762 31.9665 36.7609 31.3723 36.8677 30.6443C36.9746 29.9162 37.6663 29.3221 38.4058 29.3221C39.1453 29.3221 39.6606 29.9162 39.5537 30.6443C39.4468 31.3723 38.7551 31.9665 38.0156 31.9665ZM43.1538 33.1689H41.8677C41.8454 33.1699 41.8231 33.1659 41.8024 33.1572C41.7817 33.1485 41.7632 33.1353 41.7482 33.1186C41.7332 33.1019 41.722 33.0821 41.7155 33.0605C41.709 33.0389 41.7072 33.0162 41.7105 32.9938L42.8401 25.7868C42.8509 25.7376 42.8779 25.6935 42.9167 25.6617C42.9555 25.63 43.0039 25.6124 43.0539 25.6118H44.3399C44.3623 25.6108 44.3846 25.6147 44.4053 25.6234C44.426 25.6321 44.4445 25.6453 44.4595 25.662C44.4745 25.6787 44.4857 25.6986 44.4922 25.7201C44.4987 25.7417 44.5004 25.7645 44.4972 25.7868L43.3676 32.9938C43.3571 33.0433 43.3303 33.0878 43.2914 33.1199C43.2526 33.1521 43.2041 33.1699 43.1538 33.1706V33.1689Z" fill="#009EE3"/>
</svg>
