<svg width="196" height="21" viewBox="0 0 196 21" fill="none" xmlns="http://www.w3.org/2000/svg">
<g clip-path="url(#clip0_1_98)">
<mask id="mask0_1_98" style="mask-type:luminance" maskUnits="userSpaceOnUse" x="0" y="5" width="31" height="11">
<path d="M30.568 5.57129H0.114258V15.1546H30.568V5.57129Z" fill="white"/>
</mask>
<g mask="url(#mask0_1_98)">
<path d="M13.2995 15.0062H10.8335L12.3759 5.73926H14.8417L13.2995 15.0062Z" fill="#00579F"/>
<path d="M22.2325 5.96582C21.7464 5.77832 20.9754 5.57129 20.022 5.57129C17.5881 5.57129 15.8742 6.83311 15.8636 8.63713C15.8434 9.9681 17.0908 10.7074 18.0237 11.1512C18.9772 11.6047 19.3013 11.9007 19.3013 12.3049C19.2916 12.9258 18.5308 13.2119 17.8212 13.2119C16.8372 13.2119 16.31 13.0644 15.5088 12.719L15.1842 12.5709L14.8394 14.6512C15.4174 14.9072 16.4824 15.1344 17.5881 15.1444C20.1741 15.1444 21.8577 13.9021 21.8777 11.9796C21.8875 10.9247 21.2289 10.1163 19.8089 9.4558C18.9469 9.0318 18.419 8.74589 18.419 8.31205C18.4291 7.91765 18.8655 7.51368 19.8385 7.51368C20.6398 7.4939 21.2285 7.68114 21.6744 7.86851L21.8973 7.96691L22.2325 5.96582Z" fill="#00579F"/>
<path d="M25.5085 11.7233C25.7114 11.1909 26.4925 9.1305 26.4925 9.1305C26.4822 9.1502 26.695 8.58825 26.8167 8.24325L26.989 9.0417C26.989 9.0417 27.4557 11.26 27.557 11.7233C27.1718 11.7233 25.9953 11.7233 25.5085 11.7233ZM28.5507 5.73926H26.6443C26.0565 5.73926 25.6098 5.90671 25.3562 6.50814L21.6953 15.0061H24.2814C24.2814 15.0061 24.7071 13.8624 24.7986 13.616C25.0823 13.616 27.598 13.616 27.963 13.616C28.0337 13.9414 28.257 15.0061 28.257 15.0061H30.539L28.5507 5.73926Z" fill="#00579F"/>
<path d="M8.77631 5.73926L6.36265 12.0585L6.09889 10.7768C5.65266 9.298 4.25317 7.69135 2.69141 6.89245L4.90224 14.9964H7.50849L11.3824 5.73926H8.77631Z" fill="#00579F"/>
<path d="M4.12014 5.72998H0.154818L0.114258 5.91722C3.20746 6.68624 5.25602 8.53993 6.09768 10.768L5.23567 6.50896C5.09375 5.91709 4.65762 5.7495 4.12014 5.72998Z" fill="#FAA61A"/>
</g>
<path d="M55.9963 10.276C55.9963 7.73595 57.1845 5.47447 59.0343 4.01095C57.6702 2.9317 55.9471 2.28564 54.0717 2.28564C49.6532 2.28559 46.0713 5.86308 46.0713 10.276C46.0713 14.6889 49.6532 18.2663 54.0717 18.2663C55.947 18.2663 57.6702 17.6204 59.0343 16.5411C57.1845 15.0776 55.9963 12.816 55.9963 10.276Z" fill="#ED2026"/>
<path d="M55.9966 10.2758C55.9966 12.8158 57.1848 15.0774 59.0346 16.5409C60.8844 15.0774 62.0725 12.8158 62.0725 10.2758C62.0725 7.73574 60.8844 5.47426 59.0346 4.01074C57.1848 5.47426 55.9966 7.73568 55.9966 10.2758Z" fill="#F26A21"/>
<path d="M71.4551 14.5984V14.3646H71.3604V14.3004H71.6198V14.3646H71.5251V14.5984H71.4551ZM71.9566 14.5984V14.3917L71.8894 14.57H71.8153L71.7481 14.392V14.5984H71.6781V14.3003H71.7784L71.8527 14.491L71.9263 14.3003H72.0266V14.5984H71.9566Z" fill="#F99F1D"/>
<path d="M63.9972 2.28564C62.1218 2.28564 60.3986 2.9317 59.0347 4.01095C60.8845 5.47459 62.0726 7.73595 62.0726 10.276C62.0726 12.816 60.8845 15.0776 59.0347 16.5411C60.3987 17.6204 62.1218 18.2663 63.9972 18.2663C68.4156 18.2663 71.9976 14.6889 71.9976 10.276C71.9976 5.86308 68.4156 2.28564 63.9972 2.28564Z" fill="#F99F1D"/>
<path d="M110.45 16.6285C110.45 17.3859 109.836 18 109.079 18H88.6214C87.864 18 87.25 17.3859 87.25 16.6285V3.37145C87.25 2.61404 87.864 2 88.6214 2H109.079C109.836 2 110.45 2.61404 110.45 3.37145V16.6285Z" fill="#306FC5"/>
<path opacity="0.15" d="M88.225 16.6285V3.37145C88.225 2.61404 88.8391 2 89.5965 2H88.6214C87.864 2 87.25 2.61399 87.25 3.37145V16.6285C87.25 17.386 87.864 18 88.6214 18H89.5965C88.8391 18 88.225 17.3859 88.225 16.6285Z" fill="#202121"/>
<path d="M90.6299 8.40276H91.3231L90.9766 7.52051L90.6299 8.40276Z" fill="white"/>
<path d="M94.3164 11.3647V11.7744H95.4823V12.2156H94.3164V12.6884H95.6082L96.2069 12.0265L95.6398 11.3647H94.3164Z" fill="white"/>
<path d="M103.422 7.52051L103.044 8.40276H103.769L103.422 7.52051Z" fill="white"/>
<path d="M97.6874 12.94V11.144L96.8682 12.0263L97.6874 12.94Z" fill="white"/>
<path d="M99.231 11.6485C99.2 11.4594 99.074 11.3647 98.8847 11.3647H98.2231V11.9319H98.9164C99.105 11.9319 99.231 11.8375 99.231 11.6485Z" fill="white"/>
<path d="M101.437 11.8691C101.5 11.8376 101.532 11.7429 101.532 11.6486C101.563 11.5227 101.5 11.4596 101.437 11.428C101.374 11.3965 101.279 11.3965 101.185 11.3965H100.555V11.9007H101.185C101.279 11.9007 101.374 11.9007 101.437 11.8691Z" fill="white"/>
<path d="M105.975 6.70117V7.07927L105.786 6.70117H104.305V7.07927L104.116 6.70117H102.099C101.753 6.70117 101.469 6.76425 101.217 6.89026V6.70117H99.799V6.73271V6.89026C99.642 6.76429 99.453 6.70117 99.201 6.70117H94.1278L93.781 7.4889L93.4345 6.70117H92.3003H91.8276V7.07927L91.6701 6.70117H91.6385H90.2837L89.6535 8.18201L88.9288 9.7889L88.9155 9.8205H88.9288H90.5358H90.5559L90.5673 9.7889L90.7565 9.3164H91.1661L91.3551 9.8205H93.1824V9.7889V9.4424L93.34 9.8204H94.2537L94.4112 9.4424V9.7889V9.8205H95.1359H98.7593H98.7909V9.0012H98.854C98.917 9.0012 98.917 9.0012 98.917 9.0958V9.7889H101.186V9.5999C101.375 9.6946 101.658 9.7889 102.036 9.7889H102.982L103.171 9.2849H103.612L103.801 9.7889H105.628V9.4739V9.3164L105.912 9.7889H105.975H106.006H107.393V6.70117H105.975ZM95.2935 9.348H94.9783H94.7893V9.1591V7.61496L94.7578 7.68723L94.0248 9.348H94.0016H93.8331H93.5604L92.8043 7.61496V9.348H91.7331L91.5126 8.87534H90.4412L90.2206 9.348H89.6667L90.5988 7.14234H91.3865L92.2687 9.2533V7.14234H92.4577H93.1034L93.1183 7.17392H93.1194L93.5169 8.03913L93.8024 8.68739L93.8125 8.65471L94.4426 7.14239H95.2935V9.348ZM97.4676 7.61496H96.2388V8.02454H97.4361V8.46562H96.2388V8.90688H97.4676V9.3794H95.7032V7.14239H97.4676V7.61496ZM99.715 8.42742C99.716 8.42815 99.717 8.42865 99.718 8.42933C99.73 8.44192 99.74 8.45457 99.749 8.46666C99.809 8.54578 99.858 8.66346 99.86 8.83601C99.86 8.839 99.861 8.84195 99.861 8.84494C99.861 8.84666 99.861 8.84816 99.861 8.84992C99.861 8.85092 99.861 8.85169 99.861 8.85264C99.862 8.87 99.862 8.88771 99.862 8.90688V9.348H99.39V9.0958C99.39 8.96982 99.39 8.78073 99.295 8.65471C99.265 8.62494 99.235 8.60532 99.202 8.59137C99.155 8.56078 99.066 8.56028 98.917 8.56028H98.3496V9.348H97.8141V7.14239H99.012C99.295 7.14239 99.484 7.14239 99.642 7.23691C99.796 7.32962 99.889 7.48337 99.893 7.72684C99.886 8.06215 99.67 8.24613 99.516 8.30816C99.516 8.30816 99.621 8.32932 99.715 8.42742ZM100.776 9.348H100.24V7.14234H100.776V9.348ZM106.92 9.348H106.227L105.219 7.67794V9.0643L105.215 9.061V9.3493H104.683V9.348H104.147L103.958 8.87539H102.855L102.666 9.3794H102.068C101.816 9.3794 101.5 9.3165 101.311 9.1274C101.122 8.93838 101.028 8.6863 101.028 8.27676C101.028 7.96169 101.091 7.6464 101.311 7.39442C101.469 7.20524 101.753 7.14239 102.099 7.14239H102.603V7.61496H102.099C101.91 7.61496 101.816 7.64636 101.689 7.74106C101.595 7.83554 101.532 8.02454 101.532 8.24508C101.532 8.49721 101.564 8.65471 101.689 8.78073C101.784 8.87539 101.91 8.90693 102.068 8.90693H102.288L103.013 7.17401H103.328H103.801L104.683 9.285V9.1774V8.46571V8.40277V7.17406H105.471L106.384 8.71788V7.17406H106.92V9.348Z" fill="white"/>
<path d="M99.265 8.06125C99.274 8.05142 99.283 8.04027 99.29 8.02749C99.318 7.98232 99.351 7.90094 99.333 7.78988C99.333 7.77969 99.331 7.77025 99.329 7.76114C99.328 7.75861 99.328 7.75639 99.327 7.75385C99.311 7.69988 99.271 7.66676 99.232 7.64664C99.168 7.61523 99.074 7.61523 98.9794 7.61523H98.3491V8.11943H98.9794C99.074 8.11943 99.168 8.11943 99.232 8.08785C99.241 8.08305 99.249 8.07653 99.258 8.06915C99.258 8.06915 99.261 8.06615 99.265 8.06125Z" fill="white"/>
<path d="M108.778 12.4989C108.778 12.2784 108.716 12.0578 108.621 11.9002V10.4824L108.62 10.3878C108.62 10.3878 107.299 10.3878 107.102 10.3878C106.906 10.3878 106.667 10.5768 106.667 10.5768V10.3878H105.218C104.998 10.3878 104.714 10.4509 104.588 10.5768V10.3878H102.004V10.4824V10.5767C101.815 10.4193 101.469 10.3877 101.311 10.3877H99.61V10.4824V10.5767C99.452 10.4193 99.074 10.3877 98.8848 10.3877H96.9946L96.5533 10.8604L96.1437 10.3877H96.0118H95.7972H93.3081V10.4824V10.7313V13.5702H96.0808L96.5364 13.1145L96.9313 13.5702H96.9629H98.5606H98.633H98.6645H98.6959V13.2551V12.8455H98.8535C99.074 12.8455 99.358 12.8455 99.578 12.7509V13.5385V13.6017H100.996V13.5385V12.7824H101.059C101.154 12.7824 101.154 12.7824 101.154 12.8769V13.5385V13.6017H105.438C105.722 13.6017 106.006 13.5385 106.163 13.4125V13.5385V13.6017H107.518C107.802 13.6017 108.085 13.5702 108.274 13.4441C108.564 13.27 108.747 12.9619 108.774 12.5945C108.776 12.5836 108.777 12.5727 108.778 12.5618L108.776 12.5601C108.778 12.5397 108.778 12.5195 108.778 12.4989ZM98.8536 12.3099H98.2233V12.4042V12.5934V12.7825V13.1291H97.1876L96.5849 12.4358L96.5828 12.4381L96.5533 12.4042L95.8602 13.1291H93.8437V10.9235H95.8917L96.4513 11.5364L96.5689 11.6647L96.5848 11.6482L97.2466 10.9236H98.9165C99.241 10.9236 99.603 11.0035 99.741 11.3333C99.758 11.3986 99.767 11.4712 99.767 11.5536C99.767 12.1838 99.326 12.3099 98.8536 12.3099ZM102.004 12.2783C102.067 12.3726 102.099 12.4989 102.099 12.688V13.129H101.563V12.8455C101.563 12.7193 101.563 12.4989 101.469 12.4042C101.406 12.3099 101.28 12.3099 101.091 12.3099H100.524V13.1291H99.988V10.892H101.185C101.437 10.892 101.658 10.892 101.815 10.9864C101.973 11.081 102.099 11.2386 102.099 11.4907C102.099 11.8372 101.878 12.0262 101.721 12.0893C101.878 12.1521 101.973 12.2153 102.004 12.2783ZM104.178 11.3644H102.949V11.7741H104.147V12.2153H102.949V12.6564H104.178V13.129H102.414V10.8919H104.178V11.3644ZM105.502 13.1291H104.493V12.6565H105.502C105.596 12.6565 105.659 12.6565 105.722 12.5934C105.754 12.5618 105.785 12.4989 105.785 12.4359C105.785 12.3727 105.754 12.31 105.722 12.2784C105.691 12.2469 105.628 12.2154 105.533 12.2154C105.029 12.1838 104.43 12.2154 104.43 11.5222C104.43 11.2071 104.619 10.8605 105.187 10.8605H106.226V11.396H105.25C105.155 11.396 105.092 11.396 105.029 11.4276C104.966 11.4592 104.966 11.5222 104.966 11.5852C104.966 11.6798 105.029 11.7113 105.092 11.7426C105.155 11.7741 105.218 11.7741 105.281 11.7741H105.565C105.848 11.7741 106.037 11.8372 106.163 11.9632C106.258 12.0578 106.321 12.2154 106.321 12.4359C106.321 12.9083 106.037 13.1291 105.502 13.1291ZM108.211 12.9083C108.086 13.0345 107.865 13.1291 107.55 13.1291H106.542V12.6565H107.55C107.644 12.6565 107.707 12.6565 107.77 12.5934C107.802 12.5618 107.833 12.4989 107.833 12.4359C107.833 12.3727 107.802 12.31 107.77 12.2784C107.739 12.2469 107.676 12.2154 107.581 12.2154C107.077 12.1838 106.478 12.2154 106.478 11.5223C106.478 11.2228 106.65 10.9523 107.072 10.872C107.123 10.865 107.176 10.8605 107.235 10.8605H108.275V11.396H107.581H107.329H107.298C107.203 11.396 107.14 11.396 107.077 11.4276C107.046 11.4592 107.014 11.5222 107.014 11.5852C107.014 11.6798 107.046 11.7113 107.14 11.7426C107.203 11.7741 107.266 11.7741 107.329 11.7741H107.361H107.613C107.75 11.7741 107.855 11.7911 107.95 11.8246C108.037 11.8562 108.326 11.9854 108.391 12.3228C108.396 12.3581 108.4 12.395 108.4 12.4359C108.4 12.6249 108.337 12.7825 108.211 12.9083Z" fill="white"/>
<mask id="mask1_1_98" style="mask-type:luminance" maskUnits="userSpaceOnUse" x="126" y="8" width="33" height="6">
<path d="M158.5 8H126.5V13.12H158.5V8Z" fill="white"/>
</mask>
<g mask="url(#mask1_1_98)">
<path d="M127.99 8.15625H126.546V12.9291H127.99C128.753 12.9291 129.305 12.7556 129.792 12.3824C130.371 11.9312 130.711 11.2543 130.711 10.5514C130.702 9.1369 129.59 8.15625 127.99 8.15625ZM129.148 11.7489C128.836 12.0093 128.44 12.1308 127.796 12.1308H127.53V8.97198H127.796C128.431 8.97198 128.817 9.0761 129.148 9.3538C129.488 9.6402 129.691 10.0828 129.691 10.5427C129.691 11.0026 129.488 11.4626 129.148 11.7489Z" fill="#231F20"/>
<path d="M132.146 8.15625H131.162V12.9291H132.146V8.15625Z" fill="#231F20"/>
<path d="M134.555 9.9874C133.966 9.7791 133.792 9.6403 133.792 9.3886C133.792 9.0849 134.104 8.85925 134.527 8.85925C134.822 8.85925 135.07 8.97207 135.318 9.2498L135.833 8.61627C135.41 8.26915 134.904 8.08691 134.343 8.08691C133.452 8.08691 132.762 8.67702 132.762 9.458C132.762 10.1176 133.084 10.456 134.003 10.7684C134.389 10.8986 134.583 10.9854 134.684 11.0374C134.877 11.1589 134.978 11.3325 134.978 11.5321C134.978 11.9226 134.656 12.2089 134.215 12.2089C133.746 12.2089 133.369 11.9833 133.139 11.5755L132.504 12.1569C132.955 12.7904 133.507 13.0681 134.252 13.0681C135.272 13.0681 135.999 12.4259 135.999 11.4974C136.017 10.725 135.677 10.3779 134.555 9.9874Z" fill="#231F20"/>
<path d="M136.321 10.5515C136.321 11.9573 137.489 13.0421 138.987 13.0421C139.41 13.0421 139.778 12.964 140.22 12.7644V11.671C139.824 12.0441 139.475 12.1916 139.033 12.1916C138.04 12.1916 137.332 11.5148 137.332 10.5428C137.332 9.623 138.059 8.90269 138.987 8.90269C139.456 8.90269 139.815 9.0589 140.22 9.4407V8.3473C139.787 8.13903 139.429 8.05225 139.006 8.05225C137.525 8.05225 136.321 9.163 136.321 10.5515Z" fill="#231F20"/>
<path d="M148.054 11.3671L146.702 8.15625H145.626L147.769 13.0506H148.302L150.482 8.15625H149.415L148.054 11.3671Z" fill="#231F20"/>
<path d="M150.932 12.9291H153.728V12.1221H151.916V10.8377H153.663V10.0307H151.916V8.97198H153.728V8.15625H150.932V12.9291Z" fill="#231F20"/>
<path d="M157.636 9.5709C157.636 8.67704 156.983 8.16504 155.842 8.16504H154.38V12.9379H155.364V11.0201H155.493L156.854 12.9379H158.068L156.477 10.9246C157.222 10.7771 157.636 10.2998 157.636 9.5709ZM155.649 10.3606H155.364V8.91134H155.668C156.284 8.91134 156.615 9.1543 156.615 9.6229C156.615 10.1002 156.284 10.3606 155.649 10.3606Z" fill="#231F20"/>
<path d="M143.245 13.1029C144.733 13.1029 145.939 11.9645 145.939 10.5602C145.939 9.156 144.733 8.01758 143.245 8.01758C141.757 8.01758 140.551 9.156 140.551 10.5602C140.551 11.9645 141.757 13.1029 143.245 13.1029Z" fill="url(#paint0_linear_1_98)"/>
<path opacity="0.65" d="M143.245 13.1029C144.733 13.1029 145.939 11.9645 145.939 10.5602C145.939 9.156 144.733 8.01758 143.245 8.01758C141.757 8.01758 140.551 9.156 140.551 10.5602C140.551 11.9645 141.757 13.1029 143.245 13.1029Z" fill="url(#paint1_linear_1_98)"/>
<path d="M158.261 8.33867C158.261 8.25189 158.197 8.2085 158.095 8.2085H157.948V8.62504H158.059V8.46016L158.187 8.62504H158.316L158.169 8.45148C158.224 8.4428 158.261 8.39941 158.261 8.33867ZM158.077 8.39941H158.059V8.2866H158.077C158.132 8.2866 158.16 8.30395 158.16 8.33867C158.16 8.38206 158.132 8.39941 158.077 8.39941Z" fill="#231F20"/>
<path d="M158.114 8.05225C157.902 8.05225 157.728 8.21713 157.728 8.41672C157.728 8.61631 157.902 8.78119 158.114 8.78119C158.325 8.78119 158.5 8.61631 158.5 8.41672C158.5 8.21713 158.325 8.05225 158.114 8.05225ZM158.114 8.72045C157.948 8.72045 157.801 8.59028 157.801 8.41672C157.801 8.25184 157.939 8.11299 158.114 8.11299C158.279 8.11299 158.417 8.25184 158.417 8.41672C158.417 8.5816 158.279 8.72045 158.114 8.72045Z" fill="#231F20"/>
</g>
<path fill-rule="evenodd" clip-rule="evenodd" d="M171.455 0.00658727C170.992 -0.0227027 170.528 0.0459073 170.093 0.207967C169.569 0.395397 169.104 0.721467 168.747 1.15194C168.391 1.5824 168.157 2.10135 168.069 2.65426C167.981 3.60839 168.002 5.7739 168.002 7.23281V11.5736C168.105 11.6299 168.213 11.6782 168.318 11.7301C168.562 11.8459 168.813 11.9483 169.068 12.0371C170.273 12.4727 172.354 12.6843 172.53 10.8683C172.628 9.53135 172.537 8.15765 172.537 6.81718H175.313V10.1883C175.313 11.0169 175.266 11.8455 174.66 12.4567C174.107 12.9479 173.415 13.2519 172.681 13.3257L172.589 13.3385C171.761 13.4362 170.926 13.4386 170.098 13.3456C169.392 13.2796 168.691 13.161 168.003 12.9908V20.0214C169.693 20.0214 171.717 20.0276 173.117 20.0045C173.51 19.9693 173.892 19.8557 174.241 19.6702C174.589 19.4847 174.897 19.2312 175.147 18.9244C176.142 17.788 175.983 16.2719 175.983 14.8538V0.00436724C175.983 0.00436724 172.937 0.00258727 171.455 0.00658727Z" fill="#1E4F8F"/>
<path fill-rule="evenodd" clip-rule="evenodd" d="M180.557 0.0258163C179.869 0.0716663 179.218 0.356257 178.716 0.830907C178.363 1.14764 178.08 1.53608 177.886 1.97065C177.693 2.40522 177.593 2.87606 177.594 3.35217V7.71913C179.112 6.46515 181.416 6.50019 183.251 6.74859C183.764 6.81813 184.273 6.91436 184.776 7.03691V8.44925C184.056 8.06615 183.272 7.81984 182.463 7.72267L182.405 7.71913C181.03 7.58073 179.597 8.10455 179.452 9.73385C179.433 9.92555 179.433 10.1187 179.452 10.3104C179.459 10.3916 179.47 10.4697 179.484 10.5464C179.581 11.0243 179.823 11.4604 180.176 11.7955C180.369 11.942 180.581 12.0627 180.805 12.1548C181.656 12.3884 182.554 12.3779 183.399 12.1246C183.869 11.9849 184.324 11.7981 184.756 11.5671V12.9781C184.54 13.0317 184.326 13.0934 184.107 13.1391C183.888 13.1848 183.66 13.2225 183.436 13.2557C183.015 13.3178 182.593 13.3644 182.168 13.3844C181.809 13.4017 181.451 13.3915 181.092 13.3915C180.734 13.3817 180.38 13.3529 180.024 13.3085C179.687 13.2671 179.355 13.1938 179.032 13.0894C178.769 12.9989 178.513 12.8889 178.267 12.7603C178.027 12.6463 177.804 12.4997 177.605 12.3247V20.0282H181.993C182.286 20.0304 182.578 20.0124 182.868 19.9745C183.171 19.9389 183.466 19.8524 183.741 19.7186C183.965 19.6066 184.179 19.4741 184.38 19.3229C184.774 19.0286 185.098 18.6498 185.329 18.214C185.504 17.8724 185.618 17.5026 185.665 17.1215C185.713 16.4782 185.722 15.8327 185.692 15.1884V0.0116264C185.655 0.0111864 181.436 0.00275633 180.557 0.0258163Z" fill="#D8203B"/>
<path fill-rule="evenodd" clip-rule="evenodd" d="M188.837 9.43225H188.82V7.80701H190.579C190.61 7.80878 190.642 7.8113 190.674 7.81455C190.695 7.81544 190.716 7.81811 190.737 7.82253C190.748 7.82396 190.758 7.82618 190.769 7.82919C190.835 7.84364 190.899 7.86676 190.96 7.89794L190.992 7.91435C191.026 7.93293 191.057 7.95414 191.088 7.97778C191.122 8.00429 191.154 8.03395 191.184 8.06645C191.235 8.12135 191.278 8.18355 191.311 8.25105C191.323 8.27545 191.332 8.29985 191.343 8.32555C191.356 8.36105 191.367 8.39755 191.374 8.43465C191.408 8.59645 191.397 8.76445 191.343 8.92035C191.333 8.94555 191.323 8.97015 191.311 8.99405C191.278 9.06155 191.235 9.12375 191.184 9.17855C191.174 9.18985 191.163 9.20065 191.152 9.21095C191.142 9.22105 191.131 9.23065 191.12 9.23975C191.063 9.28985 190.998 9.33045 190.928 9.35995C190.864 9.38705 190.798 9.40755 190.73 9.42115C190.722 9.42185 190.714 9.42305 190.706 9.42475C190.088 9.47355 189.456 9.43585 188.836 9.43585L188.837 9.43225ZM188.821 12.1881H190.735C190.745 12.1881 190.755 12.1881 190.767 12.1881C190.778 12.1881 190.787 12.1859 190.798 12.1846C190.809 12.1832 190.819 12.1846 190.83 12.1823C190.862 12.1797 190.894 12.176 190.925 12.1713L190.944 12.1659L190.957 12.1628C190.968 12.1612 190.978 12.1585 190.989 12.1548C191.055 12.1339 191.118 12.1068 191.179 12.0737C191.212 12.0545 191.243 12.034 191.275 12.0125C191.31 11.9879 191.342 11.9595 191.371 11.9277C191.382 11.9153 191.392 11.9047 191.403 11.8931C191.438 11.8513 191.47 11.8068 191.499 11.7601C191.511 11.741 191.52 11.7201 191.531 11.7011C191.542 11.682 191.553 11.6501 191.561 11.623C191.575 11.5871 191.586 11.5502 191.593 11.5126C191.631 11.3398 191.62 11.16 191.561 10.9931C191.553 10.9678 191.541 10.943 191.531 10.9177C191.504 10.8626 191.472 10.8101 191.435 10.7611C191.425 10.7476 191.414 10.7347 191.403 10.7226C191.393 10.7091 191.382 10.6969 191.369 10.6862C191.359 10.6749 191.349 10.6645 191.337 10.6551C191.326 10.644 191.317 10.6361 191.306 10.6259C191.294 10.6157 191.285 10.609 191.273 10.6015C191.244 10.5768 191.212 10.556 191.178 10.5394C191.168 10.5324 191.157 10.5269 191.146 10.5229C191.08 10.4919 191.012 10.4666 190.942 10.4471L190.86 10.4338C190.849 10.4338 190.84 10.4338 190.828 10.4338C190.818 10.432 190.807 10.431 190.797 10.4307C190.786 10.4307 190.775 10.4307 190.765 10.4276C190.754 10.4283 190.744 10.4283 190.733 10.4276H188.82V12.193L188.821 12.1881ZM190.202 0.0112377C189.501 0.0484577 188.836 0.334158 188.324 0.817648C187.782 1.3007 187.409 1.94552 187.258 2.65759C187.213 2.88189 187.191 3.11013 187.191 3.33891V6.78058C188.868 6.78591 190.581 6.69941 192.252 6.82494C192.978 6.87861 193.766 7.22416 193.956 8.01595C193.97 8.08005 193.981 8.14515 193.987 8.21065C193.997 8.31615 193.997 8.42235 193.987 8.52785C193.981 8.59195 193.971 8.65555 193.956 8.71815C193.947 8.75645 193.936 8.79435 193.924 8.83165C193.808 9.12625 193.613 9.38255 193.36 9.57195C193.108 9.76145 192.807 9.87645 192.494 9.90425V9.94105C192.494 9.94765 192.83 9.99785 192.861 10.0026C193.126 10.0374 193.381 10.1279 193.609 10.2682C193.837 10.4085 194.034 10.5955 194.185 10.817C194.284 10.9839 194.348 11.1688 194.374 11.361C194.401 11.5532 194.389 11.7487 194.339 11.9362C194.239 12.2499 194.053 12.5293 193.804 12.7433C193.554 12.9573 193.251 13.0974 192.927 13.148C192.772 13.1813 192.614 13.2046 192.456 13.2176C192.13 13.246 191.802 13.262 191.475 13.2726C190.783 13.2944 190.091 13.2824 189.401 13.2651C188.67 13.2469 187.94 13.2207 187.209 13.2207V20.0274H192.016C192.321 20.0258 192.624 19.9835 192.917 19.9014C193.499 19.7188 194.023 19.3854 194.436 18.9348C194.487 18.8795 194.535 18.8225 194.582 18.7636C194.935 18.3238 195.171 17.8007 195.266 17.2439C195.279 17.1605 195.29 17.0758 195.298 16.9902C195.338 15.0656 195.311 13.1365 195.311 11.238V0.00680769C195.311 0.00680769 191.861 0.00280775 190.202 0.0112377Z" fill="#4DAD47"/>
<path fill-rule="evenodd" clip-rule="evenodd" d="M171.455 0.00658727C170.992 -0.0227027 170.528 0.0459073 170.093 0.207967C169.569 0.395397 169.104 0.721467 168.747 1.15194C168.391 1.5824 168.157 2.10135 168.069 2.65426C167.981 3.60839 168.002 5.7739 168.002 7.23281V11.5736C168.105 11.6299 168.213 11.6782 168.318 11.7301C168.562 11.8459 168.813 11.9483 169.068 12.0371C170.273 12.4727 172.354 12.6843 172.53 10.8683C172.628 9.53135 172.537 8.15765 172.537 6.81718H175.313V10.1883C175.313 11.0169 175.266 11.8455 174.66 12.4567C174.107 12.9479 173.415 13.2519 172.681 13.3257L172.589 13.3385C171.761 13.4362 170.926 13.4386 170.098 13.3456C169.392 13.2796 168.691 13.161 168.003 12.9908V20.0214C169.693 20.0214 171.717 20.0276 173.117 20.0045C173.51 19.9693 173.892 19.8557 174.241 19.6702C174.589 19.4847 174.897 19.2312 175.147 18.9244C176.142 17.788 175.983 16.2719 175.983 14.8538V0.00436724C175.983 0.00436724 172.937 0.00258727 171.455 0.00658727Z" fill="#1E4F8F"/>
<path fill-rule="evenodd" clip-rule="evenodd" d="M180.557 0.0258163C179.869 0.0716663 179.218 0.356257 178.716 0.830907C178.363 1.14764 178.08 1.53608 177.886 1.97065C177.693 2.40522 177.593 2.87606 177.594 3.35217V7.71913C179.112 6.46515 181.416 6.50019 183.251 6.74859C183.764 6.81813 184.273 6.91436 184.776 7.03691V8.44925C184.056 8.06615 183.272 7.81984 182.463 7.72267L182.405 7.71913C181.03 7.58073 179.597 8.10455 179.452 9.73385C179.433 9.92555 179.433 10.1187 179.452 10.3104C179.459 10.3916 179.47 10.4697 179.484 10.5464C179.581 11.0243 179.823 11.4604 180.176 11.7955C180.369 11.942 180.581 12.0627 180.805 12.1548C181.656 12.3884 182.554 12.3779 183.399 12.1246C183.869 11.9849 184.324 11.7981 184.756 11.5671V12.9781C184.54 13.0317 184.326 13.0934 184.107 13.1391C183.888 13.1848 183.66 13.2225 183.436 13.2557C183.015 13.3178 182.593 13.3644 182.168 13.3844C181.809 13.4017 181.451 13.3915 181.092 13.3915C180.734 13.3817 180.38 13.3529 180.024 13.3085C179.687 13.2671 179.355 13.1938 179.032 13.0894C178.769 12.9989 178.513 12.8889 178.267 12.7603C178.027 12.6463 177.804 12.4997 177.605 12.3247V20.0282H181.993C182.286 20.0304 182.578 20.0124 182.868 19.9745C183.171 19.9389 183.466 19.8524 183.741 19.7186C183.965 19.6066 184.179 19.4741 184.38 19.3229C184.774 19.0286 185.098 18.6498 185.329 18.214C185.504 17.8724 185.618 17.5026 185.665 17.1215C185.713 16.4782 185.722 15.8327 185.692 15.1884V0.0116264C185.655 0.0111864 181.436 0.00275633 180.557 0.0258163Z" fill="#D8203B"/>
<path fill-rule="evenodd" clip-rule="evenodd" d="M188.837 9.43225H188.82V7.80701H190.579C190.61 7.80878 190.642 7.8113 190.674 7.81455C190.695 7.81544 190.716 7.81811 190.737 7.82253C190.748 7.82396 190.758 7.82618 190.769 7.82919C190.835 7.84364 190.899 7.86676 190.96 7.89794L190.992 7.91435C191.026 7.93293 191.057 7.95414 191.088 7.97778C191.122 8.00429 191.154 8.03395 191.184 8.06645C191.235 8.12135 191.278 8.18355 191.311 8.25105C191.323 8.27545 191.332 8.29985 191.343 8.32555C191.356 8.36105 191.367 8.39755 191.374 8.43465C191.408 8.59645 191.397 8.76445 191.343 8.92035C191.333 8.94555 191.323 8.97015 191.311 8.99405C191.278 9.06155 191.235 9.12375 191.184 9.17855C191.174 9.18985 191.163 9.20065 191.152 9.21095C191.142 9.22105 191.131 9.23065 191.12 9.23975C191.063 9.28985 190.998 9.33045 190.928 9.35995C190.864 9.38705 190.798 9.40755 190.73 9.42115C190.722 9.42185 190.714 9.42305 190.706 9.42475C190.088 9.47355 189.456 9.43585 188.836 9.43585L188.837 9.43225ZM188.821 12.1881H190.735C190.745 12.1881 190.755 12.1881 190.767 12.1881C190.778 12.1881 190.787 12.1859 190.798 12.1846C190.809 12.1832 190.819 12.1846 190.83 12.1823C190.862 12.1797 190.894 12.176 190.925 12.1713L190.944 12.1659L190.957 12.1628C190.968 12.1612 190.978 12.1585 190.989 12.1548C191.055 12.1339 191.118 12.1068 191.179 12.0737C191.212 12.0545 191.243 12.034 191.275 12.0125C191.31 11.9879 191.342 11.9595 191.371 11.9277C191.382 11.9153 191.392 11.9047 191.403 11.8931C191.438 11.8513 191.47 11.8068 191.499 11.7601C191.511 11.741 191.52 11.7201 191.531 11.7011C191.542 11.682 191.553 11.6501 191.561 11.623C191.575 11.5871 191.586 11.5502 191.593 11.5126C191.631 11.3398 191.62 11.16 191.561 10.9931C191.553 10.9678 191.541 10.943 191.531 10.9177C191.504 10.8626 191.472 10.8101 191.435 10.7611C191.425 10.7476 191.414 10.7347 191.403 10.7226C191.393 10.7091 191.382 10.6969 191.369 10.6862C191.359 10.6749 191.349 10.6645 191.337 10.6551C191.326 10.644 191.317 10.6361 191.306 10.6259C191.294 10.6157 191.285 10.609 191.273 10.6015C191.244 10.5768 191.212 10.556 191.178 10.5394C191.168 10.5324 191.157 10.5269 191.146 10.5229C191.08 10.4919 191.012 10.4666 190.942 10.4471L190.86 10.4338C190.849 10.4338 190.84 10.4338 190.828 10.4338C190.818 10.432 190.807 10.431 190.797 10.4307C190.786 10.4307 190.775 10.4307 190.765 10.4276C190.754 10.4283 190.744 10.4283 190.733 10.4276H188.82V12.193L188.821 12.1881ZM190.202 0.0112377C189.501 0.0484577 188.836 0.334158 188.324 0.817648C187.782 1.3007 187.409 1.94552 187.258 2.65759C187.213 2.88189 187.191 3.11013 187.191 3.33891V6.78058C188.868 6.78591 190.581 6.69941 192.252 6.82494C192.978 6.87861 193.766 7.22416 193.956 8.01595C193.97 8.08005 193.981 8.14515 193.987 8.21065C193.997 8.31615 193.997 8.42235 193.987 8.52785C193.981 8.59195 193.971 8.65555 193.956 8.71815C193.947 8.75645 193.936 8.79435 193.924 8.83165C193.808 9.12625 193.613 9.38255 193.36 9.57195C193.108 9.76145 192.807 9.87645 192.494 9.90425V9.94105C192.494 9.94765 192.83 9.99785 192.861 10.0026C193.126 10.0374 193.381 10.1279 193.609 10.2682C193.837 10.4085 194.034 10.5955 194.185 10.817C194.284 10.9839 194.348 11.1688 194.374 11.361C194.401 11.5532 194.389 11.7487 194.339 11.9362C194.239 12.2499 194.053 12.5293 193.804 12.7433C193.554 12.9573 193.251 13.0974 192.927 13.148C192.772 13.1813 192.614 13.2046 192.456 13.2176C192.13 13.246 191.802 13.262 191.475 13.2726C190.783 13.2944 190.091 13.2824 189.401 13.2651C188.67 13.2469 187.94 13.2207 187.209 13.2207V20.0274H192.016C192.321 20.0258 192.624 19.9835 192.917 19.9014C193.499 19.7188 194.023 19.3854 194.436 18.9348C194.487 18.8795 194.535 18.8225 194.582 18.7636C194.935 18.3238 195.171 17.8007 195.266 17.2439C195.279 17.1605 195.29 17.0758 195.298 16.9902C195.338 15.0656 195.311 13.1365 195.311 11.238V0.00680769C195.311 0.00680769 191.861 0.00280775 190.202 0.0112377Z" fill="#4DAD47"/>
</g>
<defs>
<linearGradient id="paint0_linear_1_98" x1="144.622" y1="12.5949" x2="142.909" y2="9.753" gradientUnits="userSpaceOnUse">
<stop stop-color="#F89F20"/>
<stop offset="0.2502" stop-color="#F79A20"/>
<stop offset="0.5331" stop-color="#F68D20"/>
<stop offset="0.6196" stop-color="#F58720"/>
<stop offset="0.7232" stop-color="#F48120"/>
<stop offset="1" stop-color="#F37521"/>
</linearGradient>
<linearGradient id="paint1_linear_1_98" x1="144.328" y1="12.5579" x2="141.847" y2="7.42042" gradientUnits="userSpaceOnUse">
<stop stop-color="#F58720"/>
<stop offset="0.3587" stop-color="#E16F27"/>
<stop offset="0.703" stop-color="#D4602C"/>
<stop offset="0.9816" stop-color="#D05B2E"/>
</linearGradient>
<clipPath id="clip0_1_98">
<rect width="195.206" height="20.0284" fill="white" transform="translate(0.114258)"/>
</clipPath>
</defs>
</svg>
